<svg width="85" height="13" viewBox="0 0 85 13" fill="none" xmlns="http://www.w3.org/2000/svg">
<path d="M79.2885 3.80794H80.2485V4.81594H80.2965C80.6965 4.04794 81.3325 3.66394 82.2045 3.66394C82.9645 3.66394 83.5565 3.94794 83.9805 4.51594C84.4125 5.08394 84.6285 5.87994 84.6285 6.90394C84.6285 7.92794 84.4125 8.72394 83.9805 9.29194C83.5565 9.85994 82.9645 10.1439 82.2045 10.1439C81.3325 10.1439 80.6965 9.75994 80.2965 8.99194H80.2485V12.3999H79.2885V3.80794ZM81.8325 9.29194C82.3925 9.29194 82.8245 9.12394 83.1285 8.78794C83.4405 8.44394 83.5965 7.99194 83.5965 7.43194V6.37594C83.5965 5.81594 83.4405 5.36794 83.1285 5.03194C82.8245 4.68794 82.3925 4.51594 81.8325 4.51594C81.6165 4.51594 81.4125 4.54394 81.2205 4.59994C81.0285 4.65594 80.8605 4.73994 80.7165 4.85194C80.5725 4.95594 80.4565 5.08794 80.3685 5.24794C80.2885 5.39994 80.2485 5.57994 80.2485 5.78794V8.01994C80.2485 8.22794 80.2885 8.41194 80.3685 8.57194C80.4565 8.72394 80.5725 8.85594 80.7165 8.96794C80.8605 9.07194 81.0285 9.15194 81.2205 9.20794C81.4125 9.26394 81.6165 9.29194 81.8325 9.29194Z" fill="#ED2424"/>
<path d="M74.5531 10.1439C74.1211 10.1439 73.7291 10.0679 73.3771 9.91594C73.0331 9.76394 72.7371 9.54794 72.4891 9.26794C72.2491 8.97994 72.0651 8.63994 71.9371 8.24794C71.8091 7.84794 71.7451 7.39994 71.7451 6.90394C71.7451 6.41594 71.8091 5.97194 71.9371 5.57194C72.0651 5.17194 72.2491 4.83194 72.4891 4.55194C72.7371 4.26394 73.0331 4.04394 73.3771 3.89194C73.7291 3.73994 74.1211 3.66394 74.5531 3.66394C74.9851 3.66394 75.3731 3.73994 75.7171 3.89194C76.0691 4.04394 76.3651 4.26394 76.6051 4.55194C76.8531 4.83194 77.0411 5.17194 77.1691 5.57194C77.2971 5.97194 77.3611 6.41594 77.3611 6.90394C77.3611 7.39994 77.2971 7.84794 77.1691 8.24794C77.0411 8.63994 76.8531 8.97994 76.6051 9.26794C76.3651 9.54794 76.0691 9.76394 75.7171 9.91594C75.3731 10.0679 74.9851 10.1439 74.5531 10.1439ZM74.5531 9.31594C75.0891 9.31594 75.5211 9.15594 75.8491 8.83594C76.1771 8.51594 76.3411 8.01994 76.3411 7.34794V6.45994C76.3411 5.78794 76.1771 5.29194 75.8491 4.97194C75.5211 4.65194 75.0891 4.49194 74.5531 4.49194C74.0171 4.49194 73.5851 4.65194 73.2571 4.97194C72.9291 5.29194 72.7651 5.78794 72.7651 6.45994V7.34794C72.7651 8.01994 72.9291 8.51594 73.2571 8.83594C73.5851 9.15594 74.0171 9.31594 74.5531 9.31594Z" fill="#ED2424"/>
<path d="M64.9338 1.12H65.8938V4.816H65.9418C66.0058 4.664 66.0858 4.51999 66.1818 4.384C66.2778 4.24 66.3938 4.116 66.5298 4.012C66.6738 3.908 66.8418 3.82399 67.0338 3.75999C67.2258 3.69599 67.4498 3.664 67.7058 3.664C68.3538 3.664 68.8738 3.872 69.2658 4.288C69.6578 4.696 69.8538 5.276 69.8538 6.028V10H68.8938V6.196C68.8938 5.628 68.7698 5.208 68.5218 4.936C68.2738 4.656 67.9098 4.516 67.4298 4.516C67.2378 4.516 67.0498 4.53999 66.8658 4.58799C66.6818 4.63599 66.5178 4.708 66.3738 4.804C66.2298 4.9 66.1138 5.02399 66.0258 5.17599C65.9378 5.32799 65.8938 5.50399 65.8938 5.70399V10H64.9338V1.12Z" fill="#ED2424"/>
<path d="M60.1385 10.144C59.3865 10.144 58.7705 10.008 58.2905 9.73598C57.8105 9.45598 57.4145 9.09998 57.1025 8.66798L57.8345 8.06798C58.1625 8.47598 58.5065 8.77998 58.8665 8.97998C59.2345 9.17998 59.6705 9.27998 60.1745 9.27998C60.7825 9.27998 61.2465 9.13998 61.5665 8.85998C61.8865 8.57998 62.0465 8.18798 62.0465 7.68398C62.0465 7.27598 61.9305 6.95998 61.6985 6.73598C61.4665 6.50398 61.0625 6.33998 60.4865 6.24398L59.5505 6.08798C59.1425 6.01598 58.7985 5.90798 58.5185 5.76398C58.2465 5.61998 58.0265 5.44798 57.8585 5.24798C57.6905 5.03998 57.5705 4.81598 57.4985 4.57598C57.4265 4.32798 57.3905 4.07198 57.3905 3.80798C57.3905 3.03998 57.6425 2.45998 58.1465 2.06798C58.6505 1.67598 59.3305 1.47998 60.1865 1.47998C60.8585 1.47998 61.4225 1.59198 61.8785 1.81598C62.3425 2.03998 62.7145 2.35598 62.9945 2.76398L62.2865 3.37598C62.0545 3.07198 61.7745 2.82398 61.4465 2.63198C61.1185 2.43998 60.6945 2.34398 60.1745 2.34398C59.6065 2.34398 59.1705 2.46398 58.8665 2.70398C58.5625 2.94398 58.4105 3.30398 58.4105 3.78398C58.4105 4.15998 58.5225 4.46798 58.7465 4.70798C58.9785 4.93998 59.3905 5.10798 59.9825 5.21198L60.8825 5.36798C61.2905 5.43998 61.6345 5.54798 61.9145 5.69198C62.1945 5.83598 62.4185 6.00798 62.5865 6.20798C62.7625 6.40798 62.8865 6.63198 62.9585 6.87998C63.0305 7.12798 63.0665 7.38798 63.0665 7.65998C63.0665 8.43598 62.8105 9.04398 62.2985 9.48398C61.7945 9.92398 61.0745 10.144 60.1385 10.144Z" fill="#ED2424"/>
<path d="M54.6232 11.656L50.4472 0.880005H51.3112L55.4872 11.656H54.6232Z" fill="#EBEBEB"/>
<path d="M43.1319 9.184H45.2919V1.93599H43.1319V1.12H46.2519V9.184H48.4119V10H43.1319V9.184Z" fill="#ED2424"/>
<path d="M38.6846 10.1439C38.2366 10.1439 37.8326 10.0679 37.4726 9.91594C37.1206 9.76394 36.8166 9.54794 36.5606 9.26794C36.3126 8.97994 36.1206 8.63994 35.9846 8.24794C35.8486 7.84794 35.7806 7.40394 35.7806 6.91594C35.7806 6.41994 35.8486 5.97194 35.9846 5.57194C36.1286 5.17194 36.3246 4.83194 36.5726 4.55194C36.8206 4.26394 37.1166 4.04394 37.4606 3.89194C37.8126 3.73994 38.2006 3.66394 38.6246 3.66394C39.0406 3.66394 39.4166 3.73994 39.7526 3.89194C40.0966 4.04394 40.3886 4.25594 40.6286 4.52794C40.8686 4.79194 41.0526 5.10794 41.1806 5.47594C41.3086 5.84394 41.3726 6.24794 41.3726 6.68794V7.14394H36.7886V7.43194C36.7886 7.70394 36.8326 7.95594 36.9206 8.18794C37.0086 8.41994 37.1326 8.61994 37.2926 8.78794C37.4606 8.95594 37.6606 9.08794 37.8926 9.18394C38.1326 9.27194 38.3966 9.31594 38.6846 9.31594C39.1006 9.31594 39.4606 9.21994 39.7646 9.02794C40.0686 8.83594 40.3006 8.57194 40.4606 8.23594L41.1686 8.71594C40.9846 9.13194 40.6766 9.47594 40.2446 9.74794C39.8206 10.0119 39.3006 10.1439 38.6846 10.1439ZM38.6246 4.45594C38.3606 4.45594 38.1166 4.50394 37.8926 4.59994C37.6686 4.69594 37.4726 4.82794 37.3046 4.99594C37.1446 5.16394 37.0166 5.36394 36.9206 5.59594C36.8326 5.81994 36.7886 6.06794 36.7886 6.33994V6.42394H40.3406V6.29194C40.3406 6.01994 40.2966 5.77194 40.2086 5.54794C40.1286 5.32394 40.0126 5.13194 39.8606 4.97194C39.7166 4.80394 39.5366 4.67594 39.3206 4.58794C39.1126 4.49994 38.8806 4.45594 38.6246 4.45594Z" fill="#ED2424"/>
<path d="M30.7693 9.99998L28.5493 3.80798H29.5213L30.4093 6.39998L31.3693 9.19598H31.4173L32.3773 6.39998L33.2653 3.80798H34.2133L31.9933 9.99998H30.7693Z" fill="#ED2424"/>
<path d="M26.5259 9.99994C26.1499 9.99994 25.8819 9.90394 25.7219 9.71194C25.5619 9.51994 25.4619 9.27994 25.4219 8.99194H25.3619C25.2259 9.35194 25.0059 9.63594 24.7019 9.84394C24.4059 10.0439 24.0059 10.1439 23.5019 10.1439C22.8539 10.1439 22.3379 9.97594 21.9539 9.63994C21.5699 9.30394 21.3779 8.84394 21.3779 8.25994C21.3779 7.68394 21.5859 7.23994 22.0019 6.92794C22.4259 6.61594 23.1059 6.45994 24.0419 6.45994H25.3619V5.84794C25.3619 5.39194 25.2339 5.05194 24.9779 4.82794C24.7219 4.59594 24.3579 4.47994 23.8859 4.47994C23.4699 4.47994 23.1299 4.56394 22.8659 4.73194C22.6019 4.89194 22.3899 5.11194 22.2299 5.39194L21.5819 4.91194C21.6619 4.75194 21.7699 4.59594 21.9059 4.44394C22.0419 4.29194 22.2099 4.15994 22.4099 4.04794C22.6099 3.92794 22.8379 3.83594 23.0939 3.77194C23.3499 3.69994 23.6339 3.66394 23.9459 3.66394C24.6739 3.66394 25.2499 3.84794 25.6739 4.21594C26.1059 4.58394 26.3219 5.09594 26.3219 5.75194V9.15994H27.1859V9.99994H26.5259ZM23.6699 9.33994C23.9179 9.33994 24.1419 9.31194 24.3419 9.25594C24.5499 9.19194 24.7299 9.11194 24.8819 9.01594C25.0339 8.91194 25.1499 8.79194 25.2299 8.65594C25.3179 8.51194 25.3619 8.35994 25.3619 8.19994V7.17994H24.0419C23.4659 7.17994 23.0459 7.25994 22.7819 7.41994C22.5179 7.57994 22.3859 7.81194 22.3859 8.11594V8.36794C22.3859 8.68794 22.4979 8.93194 22.7219 9.09994C22.9539 9.25994 23.2699 9.33994 23.6699 9.33994Z" fill="#ED2424"/>
<path d="M14.3146 9.18398H16.1266V4.62398H14.3146V3.80798H17.0866V5.36798H17.1466C17.2746 4.87998 17.5146 4.49998 17.8666 4.22798C18.2266 3.94798 18.6826 3.80798 19.2346 3.80798H20.0986V4.76798H18.9346C18.3826 4.76798 17.9346 4.92798 17.5906 5.24798C17.2546 5.56798 17.0866 5.98798 17.0866 6.50798V9.18398H19.4866V9.99998H14.3146V9.18398Z" fill="#ED2424"/>
<path d="M12.1353 9.99994C11.7593 9.99994 11.4913 9.90394 11.3313 9.71194C11.1713 9.51994 11.0713 9.27994 11.0313 8.99194H10.9713C10.8353 9.35194 10.6153 9.63594 10.3113 9.84394C10.0153 10.0439 9.61531 10.1439 9.11131 10.1439C8.46331 10.1439 7.9473 9.97594 7.5633 9.63994C7.1793 9.30394 6.9873 8.84394 6.9873 8.25994C6.9873 7.68394 7.19531 7.23994 7.61131 6.92794C8.03531 6.61594 8.71531 6.45994 9.65131 6.45994H10.9713V5.84794C10.9713 5.39194 10.8433 5.05194 10.5873 4.82794C10.3313 4.59594 9.96731 4.47994 9.49531 4.47994C9.07931 4.47994 8.7393 4.56394 8.4753 4.73194C8.2113 4.89194 7.9993 5.11194 7.8393 5.39194L7.19131 4.91194C7.27131 4.75194 7.3793 4.59594 7.5153 4.44394C7.6513 4.29194 7.81931 4.15994 8.01931 4.04794C8.21931 3.92794 8.44731 3.83594 8.70331 3.77194C8.95931 3.69994 9.2433 3.66394 9.5553 3.66394C10.2833 3.66394 10.8593 3.84794 11.2833 4.21594C11.7153 4.58394 11.9313 5.09594 11.9313 5.75194V9.15994H12.7953V9.99994H12.1353ZM9.2793 9.33994C9.5273 9.33994 9.75131 9.31194 9.95131 9.25594C10.1593 9.19194 10.3393 9.11194 10.4913 9.01594C10.6433 8.91194 10.7593 8.79194 10.8393 8.65594C10.9273 8.51194 10.9713 8.35994 10.9713 8.19994V7.17994H9.65131C9.07531 7.17994 8.6553 7.25994 8.3913 7.41994C8.1273 7.57994 7.99531 7.81194 7.99531 8.11594V8.36794C7.99531 8.68794 8.1073 8.93194 8.3313 9.09994C8.5633 9.25994 8.8793 9.33994 9.2793 9.33994Z" fill="#ED2424"/>
<path d="M0.440002 10V1.62402H1.448V9.12402H5.42V10H0.440002Z" fill="#ED2424"/>
</svg>
